<?xml version="1.0" encoding="utf-8"?>
<!-- Generator: Adobe Illustrator 24.0.1, SVG Export Plug-In . SVG Version: 6.00 Build 0)  -->
<svg version="1.2" baseProfile="tiny" xmlns="http://www.w3.org/2000/svg" xmlns:xlink="http://www.w3.org/1999/xlink" x="0px"
	 y="0px" viewBox="0 0 16 16" xml:space="preserve">
<g id="Capa_1">
	<path fill="#262626" d="M11,16H5c-2.75,0-5-2.25-5-5V5c0-2.75,2.25-5,5-5h6c2.75,0,5,2.25,5,5v6C16,13.75,13.75,16,11,16z"/>
</g>
<g id="Capa_2">
	<linearGradient id="SVGID_1_" gradientUnits="userSpaceOnUse" x1="7.9559" y1="13.9799" x2="8.0428" y2="2.1973">
		<stop  offset="0" style="stop-color:#8C2E40"/>
		<stop  offset="1" style="stop-color:#F2385A"/>
	</linearGradient>
	<rect y="2" display="none" fill="url(#SVGID_1_)" width="16" height="12"/>
	<g>
		<linearGradient id="SVGID_2_" gradientUnits="userSpaceOnUse" x1="6.0476" y1="11.1055" x2="6.0476" y2="5.2539">
			<stop  offset="0" style="stop-color:#8C2E40"/>
			<stop  offset="1" style="stop-color:#F2385A"/>
		</linearGradient>
		<path fill="url(#SVGID_2_)" d="M4.3,5.25h1.32v5.02h2.17v0.84H4.3V5.25z"/>
		<linearGradient id="SVGID_3_" gradientUnits="userSpaceOnUse" x1="10.3914" y1="11.1055" x2="10.3914" y2="5.2539">
			<stop  offset="0" style="stop-color:#8C2E40"/>
			<stop  offset="1" style="stop-color:#F2385A"/>
		</linearGradient>
		<path fill="url(#SVGID_3_)" d="M9.5,5.25h1.79l1.37,5.85h-1.32l-0.24-1.16v0.02h-1.5l-0.24,1.15H8.13L9.5,5.25z M10.94,9.17
			l-0.59-2.89h-0.02L9.75,9.17H10.94z"/>
	</g>
</g>
</svg>
